<?xml version="1.0" encoding="UTF-8"?>
<svg width="800px" height="800px" viewBox="0 0 800 800" version="1.1" xmlns="http://www.w3.org/2000/svg" xmlns:xlink="http://www.w3.org/1999/xlink">
    <g id="StudySpace-Logo" stroke="none" stroke-width="1" fill="none" fill-rule="evenodd">
        <!-- Book Base - Made bolder with stronger color -->
        <path d="M100,700 C100,620 700,620 700,700 L700,100 C700,20 100,20 100,100 L100,700 Z" 
              fill="#1E90FF" opacity="1"/>
        <path d="M100,100 C100,20 700,20 700,100 C700,180 100,180 100,100 Z" 
              fill="#0066CC"/>
        
        <!-- Pages - Increased contrast with pure white -->
        <path d="M140,660 C140,590 660,590 660,660 L660,140 C660,70 140,70 140,140 L140,660 Z" 
              fill="#FFFFFF" opacity="1"/>
        
        <!-- Desk Lamp - Enlarged and brighter yellow -->
        <g transform="translate(280, 230)" fill="#FFD700">
            <path d="M0,0 L120,120 L160,80 L40,-40 Z"/>
            <circle cx="180" cy="100" r="40"/>
        </g>
        
        <!-- Study Elements - Thicker and darker black -->
        <g transform="translate(200, 350)" fill="#000000">
            <rect x="0" y="0" width="280" height="25" rx="5"/>
            <rect x="0" y="60" width="240" height="25" rx="5"/>
            <rect x="0" y="120" width="320" height="25" rx="5"/>
        </g>
        
        <!-- Decorative Elements - Larger and more vibrant -->
        <circle cx="400" cy="120" r="60" fill="#1E90FF" opacity="0.9"/>
        <circle cx="550" cy="250" r="45" fill="#1E90FF" opacity="0.8"/>
        <circle cx="250" cy="250" r="45" fill="#1E90FF" opacity="0.8"/>
    </g>
</svg>