<?xml version="1.0" encoding="UTF-8"?>
<svg width="800px" height="800px" viewBox="0 0 800 800" version="1.1" xmlns="http://www.w3.org/2000/svg" xmlns:xlink="http://www.w3.org/1999/xlink">
    <g id="StudySpace-Logo" stroke="none" stroke-width="1" fill="none" fill-rule="evenodd">
        <!-- Book Base -->
        <path d="M200,600 C200,550 600,550 600,600 L600,200 C600,150 200,150 200,200 L200,600 Z" 
              fill="#4A90E2" opacity="0.9"/>
        <path d="M200,200 C200,150 600,150 600,200 C600,250 200,250 200,200 Z" 
              fill="#2171CD"/>
        
        <!-- Pages -->
        <path d="M220,580 C220,540 580,540 580,580 L580,220 C580,180 220,180 220,220 L220,580 Z" 
              fill="#FFFFFF" opacity="0.9"/>
        
        <!-- Desk Lamp -->
        <g transform="translate(350, 300)" fill="#FFD700">
            <path d="M0,0 L60,60 L80,40 L20,-20 Z"/>
            <circle cx="90" cy="50" r="20"/>
        </g>
        
        <!-- Study Elements -->
        <g transform="translate(280, 350)" fill="#333333">
            <rect x="0" y="0" width="120" height="10" rx="2"/>
            <rect x="0" y="30" width="100" height="10" rx="2"/>
            <rect x="0" y="60" width="140" height="10" rx="2"/>
        </g>
        
        <!-- Decorative Elements -->
        <circle cx="400" cy="150" r="30" fill="#4A90E2" opacity="0.5"/>
        <circle cx="500" cy="250" r="20" fill="#4A90E2" opacity="0.3"/>
        <circle cx="300" cy="250" r="20" fill="#4A90E2" opacity="0.3"/>
    </g>
</svg>